<?xml version="1.0" encoding="UTF-8"?>
<svg id="Layer_1" xmlns="http://www.w3.org/2000/svg" xmlns:xlink="http://www.w3.org/1999/xlink" viewBox="0 0 30 30">
  <defs>
    <style>
      .cls-1 {
        fill: url(#linear-gradient);
      }

      .cls-2 {
        fill: #fff;
      }
    </style>
    <linearGradient id="linear-gradient" x1="0" y1="30" x2="30" y2="0" gradientUnits="userSpaceOnUse">
      <stop offset="0" stop-color="#72163c"/>
      <stop offset="1" stop-color="#040a23"/>
    </linearGradient>
  </defs>
  <rect class="cls-1" width="30" height="30"/>
  <g>
    <path class="cls-2" d="M3.83,15.01l1.82.64v.89l-2.75-1.17v-.75l2.75-1.17v.89l-1.82.65Z"/>
    <g>
      <path class="cls-2" d="M11.44,18.45c-.09-.17-.15-.37-.19-.62-.45.5-1.03.75-1.74.75-.68,0-1.24-.2-1.68-.59s-.67-.89-.67-1.48c0-.73.27-1.29.81-1.69s1.33-.59,2.35-.59h.85v-.4c0-.32-.08-.57-.24-.77s-.42-.29-.78-.29c-.31,0-.55.07-.73.22s-.26.35-.26.61h-1.85c0-.4.12-.77.37-1.11s.6-.61,1.05-.8.96-.29,1.52-.29c.85,0,1.53.21,2.03.64s.75,1.03.75,1.8v2.99c0,.66.1,1.15.27,1.49v.11h-1.86ZM9.92,17.17c.27,0,.52-.06.75-.18s.4-.28.51-.49v-1.19h-.69c-.92,0-1.41.32-1.47.96v.11c0,.23.07.42.24.57s.38.22.66.22Z"/>
      <path class="cls-2" d="M18.19,16.55c0-.23-.11-.4-.34-.53s-.58-.25-1.08-.35c-1.64-.34-2.46-1.04-2.46-2.09,0-.61.25-1.12.76-1.54s1.17-.62,2-.62c.88,0,1.58.21,2.1.62s.79.95.79,1.61h-1.85c0-.26-.09-.48-.26-.65s-.44-.26-.8-.26c-.31,0-.55.07-.72.21s-.26.32-.26.54c0,.2.1.37.29.49s.52.23.98.33.85.19,1.16.31c.97.36,1.46.98,1.46,1.86,0,.63-.27,1.14-.81,1.53s-1.24.58-2.09.58c-.58,0-1.09-.1-1.54-.31s-.8-.49-1.06-.85-.38-.75-.38-1.17h1.75c.02.33.14.58.36.75s.53.26.91.26c.35,0,.62-.07.8-.2s.27-.31.27-.53Z"/>
    </g>
    <g>
      <path class="cls-2" d="M22.22,17.48h-.68l1.68-4.96h.68l-1.68,4.96Z"/>
      <path class="cls-2" d="M26.19,15.14l-1.82-.64v-.87l2.73,1.15v.74l-2.73,1.15v-.88l1.82-.65Z"/>
    </g>
  </g>
</svg>