<?xml version="1.0" encoding="UTF-8"?>
<svg xmlns="http://www.w3.org/2000/svg" version="1.1" viewBox="0 0 800 800">
  <defs>
    <style>
      .cls-1 {
        fill: #fff;
      }
    </style>
  </defs>
  <!-- Generator: Adobe Illustrator 28.7.1, SVG Export Plug-In . SVG Version: 1.2.0 Build 142)  -->
  <g>
    <g id="Layer_1">
      <g>
        <path class="cls-1" d="M405.7,349.2c-5.5,0-5.5,165.7-5.5,165.7,0,12.9,7.7,47.2,15.3,48.1,0,0-5.5-213.8-9.8-213.8Z"/>
        <path class="cls-1" d="M400,0C179.1,0,0,179.1,0,400s179.1,400,400,400,400-179.1,400-400S620.9,0,400,0ZM438.1,564.6l-.6.5c-5,4.6-10.2,8.9-15.7,12.9l-.8.5c-4.5,20.2-7.9,40.7-10.2,61.4h-9.6c-2.7-29.2-6.5-56.7-6.6-57.3h0c0,0-1.4-.9-1.4-.9-12.3-9-103.3-79.4-97.7-197.5,6-126.7,80.3-189,94.7-200.3,9.3-10,9.7-13.8,10.4-23.7.2.5.4,1,.5,1.3,0,0,7.1,17.6,14.2,27.5,6.4,14,66.1,50.7,91.4,162.2h0c2.5,14.6,3.8,29.5,3.9,44.3.5,89.1-46.6,145-72.7,169.2Z"/>
      </g>
    </g>
  </g>
</svg>