<?xml version="1.0" encoding="UTF-8"?>
<svg xmlns="http://www.w3.org/2000/svg" version="1.1" viewBox="0 0 800 719.6">
  <defs>
    <style>
      .cls-1 {
        fill: #fff;
      }
    </style>
  </defs>
  <!-- Generator: Adobe Illustrator 28.7.1, SVG Export Plug-In . SVG Version: 1.2.0 Build 142)  -->
  <g>
    <g id="Layer_1">
      <g>
        <path class="cls-1" d="M654.7,236.1h0c-8.4-2.9-16.9-5.6-25.5-8,1.4-5.8,2.7-11.5,3.9-17.4,19.3-93.5,6.7-168.9-36.3-193.6-41.2-23.8-108.7,1-176.8,60.3-6.7,5.9-13.3,11.9-19.7,18.1-4.3-4.1-8.7-8.1-13.1-12.1C315.9,19.9,244.3-6.8,201.3,18.1c-41.2,23.9-53.4,94.7-36.1,183.3,1.7,8.8,3.7,17.5,5.8,26.2-10.1,2.9-19.9,5.9-29.3,9.2C58.2,266,4.7,311.7,4.7,359.1s57.4,98.1,144.6,127.9c7.1,2.4,14.2,4.6,21.4,6.7-2.3,9.3-4.4,18.8-6.2,28.2-16.5,87.1-3.6,156.2,37.5,179.9,42.4,24.5,113.7-.7,183-61.3,5.5-4.8,11-9.9,16.5-15.2,6.9,6.7,14.1,13.2,21.4,19.5,67.2,57.8,133.5,81.2,174.6,57.4,42.4-24.5,56.2-98.8,38.3-189.2-1.4-6.9-3-14-4.7-21.1,5-1.5,9.9-3,14.7-4.6,90.6-30,149.6-78.6,149.6-128.2s-55.2-93.7-140.6-123ZM442.2,102.8c58.4-50.8,112.9-70.8,137.8-56.5h0c26.5,15.3,36.8,76.8,20.1,157.6-1.1,5.3-2.3,10.5-3.6,15.7-32.8-7.6-68.4-13.2-105.7-16.7-21.7-30.9-44.2-59.1-66.8-83.4,5.9-5.7,12-11.3,18.2-16.7ZM238.1,399.7c7.1,13.8,14.6,27.4,22.4,40.9,7.9,13.7,16.2,27.3,24.8,40.6-25.9-2.9-50.3-6.8-72.9-11.7,7-22.5,15.6-46,25.6-69.8ZM238.1,320.2c-9.8-23.3-18.2-46.3-25.1-68.4,22.6-5,46.6-9.2,71.7-12.3-8.4,13.1-16.5,26.4-24.2,39.8-7.8,13.5-15.2,27.1-22.3,40.9ZM256.1,359.9c10.4-21.7,21.6-42.9,33.6-63.7h0c12-20.8,24.8-41.2,38.3-61,23.5-1.8,47.6-2.7,72-2.7s48.6.9,72.1,2.7c13.4,19.8,26.1,40.1,38.1,60.8,12,20.8,23.4,41.9,34.1,63.4-10.6,21.7-21.9,43.1-34,64h0c-12,20.8-24.6,41.2-37.9,61.2-23.5,1.7-47.7,2.5-72.4,2.5s-48.5-.8-71.6-2.3c-13.6-19.9-26.5-40.4-38.6-61.3-12-20.8-23.3-42-33.7-63.7ZM539.6,440.3c8-13.8,15.6-27.8,22.9-41.9h0c10.6,24.1,19.5,47.4,26.5,69.5-22.9,5.2-47.7,9.4-73.7,12.6,8.4-13.2,16.4-26.7,24.3-40.2ZM562.2,320.3c-7.3-13.9-14.9-27.6-22.7-41.1-7.7-13.3-15.7-26.5-24-39.5,25.2,3.2,49.4,7.4,72.1,12.6-6.8,21.8-15.3,44.7-25.3,68.1ZM400.4,143.7h0c15.6,16.9,31.2,35.7,46.5,56.2-31.1-1.5-62.3-1.5-93.4,0,15.4-20.3,31.1-39.1,46.9-56.1ZM218.3,47.3c26.5-15.3,84.9,6.5,146.6,61.3,3.9,3.5,7.9,7.2,11.9,11-23,24.7-45.7,52.7-67.3,83.3-37.2,3.4-72.8,9-105.5,16.4-2-8.1-3.8-16.2-5.4-24.4h0c-14.9-75.9-5-133.2,19.8-147.6ZM179.7,461.2c-6.6-1.9-13.1-3.9-19.5-6.1-38.5-13.2-70.4-30.3-92.2-49-19.6-16.8-29.5-33.5-29.5-47,0-28.8,42.9-65.5,114.5-90.5,9-3.1,18.1-6,27.2-8.6,9.9,32.2,22.9,65.8,38.5,99.8-15.9,34.5-29,68.7-39,101.3ZM362.7,615.2c-30.7,26.8-61.4,45.8-88.5,55.4h0c-24.3,8.6-43.7,8.8-55.4,2.1-24.9-14.4-35.3-69.9-21.2-144.4,1.7-8.8,3.6-17.6,5.8-26.2,32.4,7.2,68.2,12.3,106.5,15.4,21.9,30.8,44.8,59.1,67.9,83.8-4.9,4.7-9.9,9.4-15.1,13.9ZM401.3,577c-16-17.3-32-36.4-47.6-56.9,15.1.6,30.6.9,46.3.9s32-.4,47.7-1.1c-15.4,20.9-30.9,40.1-46.4,57.1ZM606.4,624c-4.7,25.4-14.2,42.3-25.9,49.1-24.9,14.4-78.2-4.3-135.7-53.8-6.6-5.7-13.2-11.7-19.9-18.1,22.3-24.4,44.5-52.7,66.3-84.1,38.2-3.4,74.3-8.9,107.1-16.5,1.6,6.5,3,12.9,4.3,19.1h0c7.9,40,9,76.1,3.8,104.3ZM635.1,455.3h0c-4.3,1.4-8.8,2.8-13.3,4.2-10-31.7-23.5-65.4-40-100.2,15.8-34,28.7-67.2,38.5-98.7,8.1,2.3,15.9,4.8,23.5,7.4,73.2,25.2,117.8,62.4,117.8,91.1s-48.2,70.2-126.4,96.2Z"/>
        <path class="cls-1" d="M400,429.7c39,0,70.6-31.6,70.6-70.6s-31.6-70.6-70.6-70.6-70.6,31.6-70.6,70.6,31.6,70.6,70.6,70.6Z"/>
      </g>
    </g>
  </g>
</svg>