<?xml version="1.0" encoding="UTF-8"?>
<svg xmlns="http://www.w3.org/2000/svg" version="1.1" viewBox="0 0 1000 1000">
  <defs>
    <style>
      .cls-1 {
        fill: #fff;
      }

      .cls-2 {
        opacity: .6;
      }
    </style>
  </defs>
  <!-- Generator: Adobe Illustrator 28.7.1, SVG Export Plug-In . SVG Version: 1.2.0 Build 142)  -->
  <g>
    <g id="Layer_1">
      <g id="watermark">
        <g>
          <g id="watermark-2" data-name="watermark" class="cls-2">
            <g>
              <g>
                <g>
                  <polygon class="cls-1" points="421.1 924.5 409 952.5 402.6 952.5 390.5 924.5 397.5 924.5 406.1 944.5 414.7 924.5 421.1 924.5"/>
                  <path class="cls-1" d="M442.3,943.2h-16.3c.6,2.7,2.9,4.3,6.2,4.3s3.9-.7,5.4-2.1l3.3,3.6c-2,2.3-5,3.5-8.9,3.5-7.4,0-12.3-4.7-12.3-11.1s4.9-11.1,11.5-11.1,11.2,4.2,11.2,11.1c0,.5,0,1.2-.1,1.7M426,939.5h10.6c-.4-2.7-2.5-4.5-5.3-4.5s-4.9,1.7-5.3,4.5"/>
                  <path class="cls-1" d="M445,941.4c0-6.5,5-11.1,12-11.1s8.1,2,9.6,5.5l-4.8,2.6c-1.2-2-2.9-3-4.8-3-3.2,0-5.6,2.2-5.6,6s2.5,6,5.6,6,3.7-.9,4.8-3l4.8,2.6c-1.6,3.4-5.1,5.4-9.6,5.4-7,0-12-4.6-12-11.1"/>
                  <path class="cls-1" d="M484.4,951.1c-1.3.9-3.2,1.4-5.1,1.4-5.1,0-8-2.6-8-7.7v-8.8h-3.3v-4.8h3.3v-5.2h6.2v5.2h5.4v4.8h-5.4v8.7c0,1.8,1,2.8,2.7,2.8s1.8-.3,2.5-.8l1.7,4.4Z"/>
                </g>
                <path class="cls-1" d="M527.2,930.7v5.8c-.5,0-.9,0-1.4,0-3.4,0-5.7,1.9-5.7,6v10.1h-6.2v-21.5h6v2.8c1.5-2.1,4.1-3.2,7.4-3.2"/>
                <path class="cls-1" d="M529,949.3l2.2-4.9c2.4,1.7,5.9,2.9,9.2,2.9s5.4-1.3,5.4-3c0-5.2-16.3-1.6-16.3-12s3.8-8.7,11.8-8.7,7.1.8,9.7,2.5l-2,4.9c-2.6-1.5-5.3-2.2-7.8-2.2-3.8,0-5.3,1.4-5.3,3.2,0,5.2,16.3,1.6,16.3,11.9s-3.9,8.7-11.9,8.7c-4.4,0-8.9-1.3-11.4-3.2"/>
                <path class="cls-1" d="M577.1,943.2h-16.3c.6,2.7,2.9,4.3,6.2,4.3s3.9-.7,5.4-2.1l3.3,3.6c-2,2.3-5,3.5-8.9,3.5-7.4,0-12.3-4.7-12.3-11.1s4.9-11.1,11.5-11.1,11.2,4.2,11.2,11.1c0,.5,0,1.2-.1,1.7M560.8,939.5h10.6c-.4-2.7-2.5-4.5-5.3-4.5s-4.9,1.7-5.3,4.5"/>
                <path class="cls-1" d="M602.3,943.2h-16.3c.6,2.7,2.9,4.3,6.2,4.3s3.9-.7,5.4-2.1l3.3,3.6c-2,2.3-5,3.5-8.9,3.5-7.4,0-12.3-4.7-12.3-11.1s4.9-11.1,11.5-11.1,11.2,4.2,11.2,11.1c0,.5,0,1.2-.1,1.7M586,939.5h10.6c-.4-2.7-2.5-4.5-5.3-4.5s-4.9,1.7-5.3,4.5"/>
                <polygon class="cls-1" points="615.8 944.1 612.8 947 612.8 952.5 606.6 952.5 606.6 922.8 612.8 922.8 612.8 939.6 622 931 629.4 931 620.4 940.1 630.2 952.5 622.6 952.5 615.8 944.1"/>
                <path class="cls-1" d="M514.4,955.4h0l-6.2-6.2c-.9,1.1-2.1,2.1-3.3,2.8-.2.2-.4.3-.6.4l6.6,6.6c1,1,2.6,1,3.6,0,1-1,1-2.6,0-3.6"/>
                <path class="cls-1" d="M500,929c.5-.4,1.1-.6,1.7-.6s.2,0,.3,0c-.5-.3-1-.5-1.7-.5s-1.6.4-2.1,1c-.1,0-.2,0-.3,0,0-.2.1-.4.1-.6,0-.5-.3-.9-.8-1.1.2.3.3.6.3,1s0,.5-.2.7c-6.1.4-11,5.5-11,11.8s5.3,11.8,11.8,11.8,11.8-5.3,11.8-11.8c0-5.9-4.4-10.8-10-11.7M495.6,932.1c.9,0,1.8.2,2.6.7.8-.5,1.8-.8,2.8-.8,1.5,0,2.9.7,3.9,1.8-.9-.8-2.2-1.3-3.5-1.3s-1.9.3-2.7.7c-.2,0-.3.2-.5.3-.1-.1-.3-.2-.4-.3-.8-.5-1.7-.7-2.7-.7s-1.3.1-1.9.3c.7-.4,1.6-.6,2.5-.6M503.9,941.8c.2.7.4,1.4.4,2.1,0,3.3-2.7,6-6,6s-6-2.7-6-6,.1-1.5.4-2.1c-1.4-.8-2.3-2.3-2.3-4,0-2.6,2.1-4.7,4.7-4.7s2.3.5,3.2,1.2c.8-.8,2-1.2,3.2-1.2,2.6,0,4.7,2.1,4.7,4.7,0,1.7-.9,3.2-2.3,4"/>
                <path class="cls-1" d="M503.6,937.4c0,1.1-.9,2-2,2s-2-.9-2-2,.9-2,2-2,.4,0,.6.1c0,.1,0,.3,0,.4,0,.6.5,1.1,1.1,1.1s.2,0,.3,0c0,.1,0,.3,0,.4"/>
                <path class="cls-1" d="M496.2,937.4c0,.8-.7,1.5-1.5,1.5s-1.5-.7-1.5-1.5.7-1.5,1.5-1.5.3,0,.5,0c0,.1,0,.2,0,.3,0,.4.4.8.8.8s.2,0,.2,0c0,0,0,.2,0,.3"/>
                <g>
                  <g>
                    <rect class="cls-1" x="484.6" y="939" width="1.3" height="1.3"/>
                    <rect class="cls-1" x="510.5" y="939" width="1.3" height="1.3"/>
                    <path class="cls-1" d="M511.3,939.6h-.3c0-7.1-5.8-12.8-12.8-12.8s-12.8,5.8-12.8,12.8h-.3c0-3.5,1.4-6.8,3.8-9.3,2.5-2.5,5.8-3.8,9.3-3.8s6.8,1.4,9.3,3.8c2.5,2.5,3.8,5.8,3.8,9.3"/>
                  </g>
                  <rect class="cls-1" x="497.5" y="925.9" width="1.3" height="1.3"/>
                  <rect class="cls-1" x="489" y="926.4" width="18.4" height=".3"/>
                  <path class="cls-1" d="M489.5,926.7c0,.2-.2.4-.4.4s-.4-.2-.4-.4.2-.4.4-.4.4.2.4.4"/>
                  <path class="cls-1" d="M507.8,926.7c0,.2-.2.4-.4.4s-.4-.2-.4-.4.2-.4.4-.4.4.2.4.4"/>
                </g>
              </g>
              <path class="cls-1" d="M640.1,951.2c0,3.4-5.1,3.4-5.1,0s5.1-3.4,5.1,0Z"/>
              <g>
                <g>
                  <path class="cls-1" d="M307.8,936.2l3.9,13.3,4-13.3h4.8l-6.1,17.7h-5.1l-1.8-5.2-1.6-5.9-1.6,5.9-1.8,5.2h-5.1l-6.2-17.7h4.9l4,13.3,3.8-13.3h3.8Z"/>
                  <path class="cls-1" d="M340.4,936.2l3.9,13.3,4-13.3h4.8l-6.1,17.7h-5.1l-1.8-5.2-1.6-5.9-1.6,5.9-1.8,5.2h-5.1l-6.2-17.7h4.9l4,13.3,3.8-13.3h3.8Z"/>
                  <path class="cls-1" d="M373,936.2l3.9,13.3,4-13.3h4.8l-6.1,17.7h-5.1l-1.8-5.2-1.6-5.9-1.6,5.9-1.8,5.2h-5.1l-6.2-17.7h4.9l4,13.3,3.8-13.3h3.8Z"/>
                </g>
                <path class="cls-1" d="M393.1,951.4c0,3.4-5.1,3.4-5.1,0s5.1-3.4,5.1,0Z"/>
                <path class="cls-1" d="M658.3,951.2c-2,2-4.2,2.8-6.8,2.8-5.1,0-9.4-3.1-9.4-9.3s4.3-9.3,9.4-9.3,4.4.7,6.4,2.6l-2.8,2.9c-1-.9-2.3-1.4-3.5-1.4-2.9,0-5.1,2.1-5.1,5.2s2.3,5.1,5,5.1,2.8-.4,3.9-1.5l2.9,2.9Z"/>
                <path class="cls-1" d="M678.1,944.8c0,5.1-3.5,9.2-9.2,9.2s-9.1-4.1-9.1-9.2,3.5-9.2,9.1-9.2,9.2,4.1,9.2,9.2ZM664.1,944.8c0,2.7,1.6,5.2,4.8,5.2s4.8-2.5,4.8-5.2-1.9-5.2-4.8-5.2-4.8,2.6-4.8,5.2Z"/>
                <path class="cls-1" d="M692.8,954v-9.4c0-2.3-1.2-4.4-3.6-4.4s-3.8,2.1-3.8,4.4v9.4h-4.4v-17.6h4l.3,2.1c.9-1.8,3-2.4,4.6-2.4s4.2.9,5.2,3.3c1.6-2.5,3.6-3.2,5.9-3.2,5,0,7.5,3.1,7.5,8.4v9.5h-4.4v-9.5c0-2.3-1-4.3-3.3-4.3s-3.8,2-3.8,4.4v9.4h-4.4Z"/>
              </g>
            </g>
          </g>
          <g class="cls-2">
            <g>
              <path class="cls-1" d="M709,859.5c0-2.7-2.1-4.6-4.8-4.7-2,0-1.8.3-1.8-1.9,0-2.4,0-4.8,0-7.2,0-.8-.2-1.5-.8-2.1-5.1-5.8-10.2-11.6-15.3-17.4-.3-.3-.6-.5-.9-.8h-40.6c-1.7.6-2.5,1.9-2.5,3.7,0,8.2,0,16.3,0,24.5,0,1.2,0,1.3-1.2,1.2-3.3-.2-5.5,2.1-5.4,5.4,0,7.6,0,15.1,0,22.7,0,3.4,1.9,5.3,5.3,5.3q1.3,0,1.3,1.3c0,4.8,0,9.7,0,14.5,0,2.6,1.3,3.9,3.8,3.9,17.4,0,34.9,0,52.3,0,2.5,0,3.8-1.3,3.8-3.8,0-4.9,0-9.8,0-14.7,0-1.1,0-1.1,1.1-1.1.6,0,1.2,0,1.8-.1,2.2-.5,3.7-2.3,3.7-4.5,0-8.1,0-16.1,0-24.2ZM647,828.7c11.6,0,23.2,0,34.9,0,1.2,0,1.2,0,1.2,1.2,0,4.9,0,9.8,0,14.7,0,1.8.5,2.3,2.3,2.3,4.2,0,8.3,0,12.5,0,1,0,1,0,1,1.1,0,1.9,0,3.9,0,5.8,0,1,0,1.1-1.1,1.1-8.5,0-17,0-25.4,0h-25.4c-1.2,0-1.2,0-1.2-1.2,0-7.9,0-15.8,0-23.7,0-1.2,0-1.2,1.2-1.2ZM697.7,903.6c-8.5,0-16.9,0-25.4,0s-16.9,0-25.3,0c-1.2,0-1.2,0-1.2-1.3,0-4.3,0-8.7,0-13,0-1,0-1.1,1-1.1,17,0,34,0,51,0,1,0,1.1,0,1.1,1.1,0,4.3,0,8.7,0,13,0,1.2,0,1.2-1.2,1.2Z"/>
              <g>
                <rect class="cls-1" x="668.5" y="828.5" width="3.8" height="2.3"/>
                <rect class="cls-1" x="664.7" y="830.8" width="3.8" height="2.3"/>
                <rect class="cls-1" x="668.5" y="833.1" width="3.8" height="2.3"/>
                <rect class="cls-1" x="664.7" y="835.4" width="3.8" height="2.3"/>
                <rect class="cls-1" x="668.5" y="837.7" width="3.8" height="2.3"/>
                <rect class="cls-1" x="664.7" y="840" width="3.8" height="2.3"/>
                <rect class="cls-1" x="668.5" y="842.2" width="3.8" height="2.3"/>
                <rect class="cls-1" x="664.7" y="844.5" width="3.8" height="2.3"/>
                <rect class="cls-1" x="668.5" y="846.8" width="3.8" height="2.3"/>
                <rect class="cls-1" x="664.7" y="849.1" width="3.8" height="2.3"/>
                <rect class="cls-1" x="668.5" y="851.4" width="3.8" height="2.3"/>
                <rect class="cls-1" x="664.7" y="853.7" width="3.8" height="2.3"/>
              </g>
            </g>
            <path class="cls-1" d="M364.2,859.5c0-2.7-2.1-4.6-4.8-4.7-2,0-1.8.3-1.8-1.9,0-2.4,0-4.8,0-7.2,0-.8-.2-1.5-.8-2.1-5.1-5.8-10.2-11.6-15.3-17.4-.3-.3-.6-.5-.9-.8h-40.6c-1.7.6-2.5,1.9-2.5,3.7,0,8.2,0,16.3,0,24.5,0,1.2,0,1.3-1.2,1.2-3.3-.2-5.5,2.1-5.4,5.4,0,7.6,0,15.1,0,22.7,0,3.4,1.9,5.3,5.3,5.3q1.3,0,1.3,1.3c0,4.8,0,9.7,0,14.5,0,2.6,1.3,3.9,3.9,3.9,17.4,0,34.9,0,52.3,0,2.5,0,3.8-1.3,3.8-3.8,0-4.9,0-9.8,0-14.7,0-1.1,0-1.1,1.1-1.1.6,0,1.2,0,1.8-.1,2.2-.5,3.7-2.3,3.7-4.5,0-8.1,0-16.1,0-24.2ZM302.3,828.7c11.6,0,23.2,0,34.9,0,1.2,0,1.2,0,1.2,1.2,0,4.9,0,9.8,0,14.7,0,1.8.5,2.3,2.3,2.3,4.2,0,8.3,0,12.5,0,1,0,1,0,1,1.1,0,1.9,0,3.9,0,5.8,0,1,0,1.1-1.1,1.1-8.5,0-17,0-25.4,0h-25.4c-1.2,0-1.2,0-1.2-1.2,0-7.9,0-15.8,0-23.7,0-1.2,0-1.2,1.2-1.2ZM353,903.6c-8.5,0-16.9,0-25.4,0s-16.9,0-25.3,0c-1.2,0-1.2,0-1.2-1.3,0-4.3,0-8.7,0-13,0-1,0-1.1,1-1.1,17,0,34,0,51,0,1,0,1.1,0,1.1,1.1,0,4.3,0,8.7,0,13,0,1.2,0,1.2-1.2,1.2Z"/>
            <g>
              <path class="cls-1" d="M303.6,879.9v-17.2h6.1c.8,0,1.6.1,2.3.4s1.3.6,1.9,1.1c.5.5.9,1.1,1.2,1.7.3.7.5,1.4.5,2.2s-.2,1.6-.5,2.2-.7,1.2-1.2,1.7c-.5.5-1.1.9-1.9,1.1-.7.3-1.5.4-2.3.4h-2.8v6.3h-3.2ZM309.7,870.5c.8,0,1.5-.2,1.9-.7.4-.5.6-1,.6-1.7s0-.6-.2-.9c-.1-.3-.3-.5-.5-.8-.2-.2-.5-.4-.8-.5-.3-.1-.7-.2-1.1-.2h-2.9v4.7h2.9Z"/>
              <path class="cls-1" d="M317.8,862.7h3.8l6.9,11.5h.2l-.2-3.3v-8.2h3.2v17.2h-3.4l-7.3-12.2h-.2l.2,3.3v8.9h-3.2v-17.2h0Z"/>
              <path class="cls-1" d="M343.1,870.5h8.4c0,.2,0,.4.1.7,0,.3,0,.5,0,.8,0,1.1-.2,2.1-.5,3.1-.3,1-.9,1.8-1.6,2.6-.8.8-1.7,1.4-2.8,1.9-1.1.4-2.3.7-3.7.7s-2.4-.2-3.5-.7c-1.1-.4-2.1-1.1-2.9-1.9-.8-.8-1.5-1.7-1.9-2.8-.5-1.1-.7-2.3-.7-3.6s.2-2.5.7-3.6,1.1-2,1.9-2.8,1.8-1.4,2.9-1.9,2.3-.7,3.5-.7,2.6.2,3.7.7c1.1.5,2,1.1,2.8,2l-2.2,2.2c-.6-.6-1.2-1-1.9-1.4s-1.5-.5-2.5-.5-1.5.1-2.2.4c-.7.3-1.3.7-1.9,1.2-.5.5-.9,1.1-1.3,1.9-.3.7-.5,1.5-.5,2.4s.2,1.7.5,2.4c.3.7.7,1.3,1.3,1.9s1.2.9,1.9,1.2c.7.3,1.5.4,2.3.4s1.7-.1,2.3-.4c.6-.3,1.2-.6,1.6-1,.3-.3.6-.7.8-1.1s.4-.9.5-1.5h-5.4v-2.8Z"/>
            </g>
            <path class="cls-1" d="M443.4,859.5c0-2.7-2.1-4.6-4.8-4.7-2,0-1.8.3-1.8-1.9,0-2.4,0-4.8,0-7.2,0-.8-.2-1.5-.8-2.1-5.1-5.8-10.2-11.6-15.3-17.4-.3-.3-.6-.5-.9-.8h-40.6c-1.7.6-2.5,1.9-2.5,3.7,0,8.2,0,16.3,0,24.5,0,1.2,0,1.3-1.2,1.2-3.3-.2-5.5,2.1-5.4,5.4,0,7.6,0,15.1,0,22.7,0,3.4,1.9,5.3,5.3,5.3q1.3,0,1.3,1.3c0,4.8,0,9.7,0,14.5,0,2.6,1.3,3.9,3.9,3.9,17.4,0,34.9,0,52.3,0,2.5,0,3.8-1.3,3.8-3.8,0-4.9,0-9.8,0-14.7,0-1.1,0-1.1,1.1-1.1.6,0,1.2,0,1.8-.1,2.2-.5,3.7-2.3,3.7-4.5,0-8.1,0-16.1,0-24.2ZM381.5,828.7c11.6,0,23.2,0,34.9,0,1.2,0,1.2,0,1.2,1.2,0,4.9,0,9.8,0,14.7,0,1.8.5,2.3,2.3,2.3,4.2,0,8.3,0,12.5,0,1,0,1,0,1,1.1,0,1.9,0,3.9,0,5.8,0,1,0,1.1-1.1,1.1-8.5,0-17,0-25.4,0h-25.4c-1.2,0-1.2,0-1.2-1.2,0-7.9,0-15.8,0-23.7,0-1.2,0-1.2,1.2-1.2ZM432.2,903.6c-8.5,0-16.9,0-25.4,0s-16.9,0-25.3,0c-1.2,0-1.2,0-1.2-1.3,0-4.3,0-8.7,0-13,0-1,0-1.1,1-1.1,17,0,34,0,51,0,1,0,1.1,0,1.1,1.1,0,4.3,0,8.7,0,13,0,1.2,0,1.2-1.2,1.2Z"/>
            <g>
              <path class="cls-1" d="M402.3,862.7h3.7l6.5,17.2h-3.6l-1.4-4.1h-6.6l-1.4,4.1h-3.6l6.5-17.2ZM406.4,872.8l-1.5-4.3-.6-2.1h-.2l-.6,2.1-1.5,4.3h4.5Z"/>
              <path class="cls-1" d="M415.8,866.5c-.3,0-.5,0-.8-.2-.2-.1-.5-.2-.6-.4-.2-.2-.3-.4-.4-.6-.1-.2-.2-.5-.2-.8s0-.6.2-.8c.1-.2.2-.5.4-.6.2-.2.4-.3.6-.4.2-.1.5-.2.8-.2.6,0,1,.2,1.4.6.4.4.6.9.6,1.4s-.2,1-.6,1.4c-.4.4-.9.6-1.4.6ZM414.3,879.9v-11.8h3.1v11.8h-3.1Z"/>
            </g>
            <path class="cls-1" d="M524,859.5c0-2.7-2.1-4.6-4.8-4.7-2,0-1.8.3-1.8-1.9,0-2.4,0-4.8,0-7.2,0-.8-.2-1.5-.8-2.1-5.1-5.8-10.2-11.6-15.3-17.4-.3-.3-.6-.5-.9-.8h-40.6c-1.7.6-2.5,1.9-2.5,3.7,0,8.2,0,16.3,0,24.5,0,1.2,0,1.3-1.2,1.2-3.3-.2-5.5,2.1-5.4,5.4,0,7.6,0,15.1,0,22.7,0,3.4,1.9,5.3,5.3,5.3q1.3,0,1.3,1.3c0,4.8,0,9.7,0,14.5,0,2.6,1.3,3.9,3.9,3.9,17.4,0,34.9,0,52.3,0,2.5,0,3.8-1.3,3.8-3.8,0-4.9,0-9.8,0-14.7,0-1.1,0-1.1,1.1-1.1.6,0,1.2,0,1.8-.1,2.2-.5,3.7-2.3,3.7-4.5,0-8.1,0-16.1,0-24.2ZM462.1,828.7c11.6,0,23.2,0,34.9,0,1.2,0,1.2,0,1.2,1.2,0,4.9,0,9.8,0,14.7,0,1.8.5,2.3,2.3,2.3,4.2,0,8.3,0,12.5,0,1,0,1,0,1,1.1,0,1.9,0,3.9,0,5.8,0,1,0,1.1-1.1,1.1-8.5,0-17,0-25.4,0h-25.4c-1.2,0-1.2,0-1.2-1.2,0-7.9,0-15.8,0-23.7,0-1.2,0-1.2,1.2-1.2ZM512.8,903.6c-8.5,0-16.9,0-25.4,0s-16.9,0-25.3,0c-1.2,0-1.2,0-1.2-1.3,0-4.3,0-8.7,0-13,0-1,0-1.1,1-1.1,17,0,34,0,51,0,1,0,1.1,0,1.1,1.1,0,4.3,0,8.7,0,13,0,1.2,0,1.2-1.2,1.2Z"/>
            <g>
              <path class="cls-1" d="M470.3,880.3c-.7,0-1.4-.1-2.1-.3s-1.3-.5-1.8-.9c-.6-.4-1-.9-1.5-1.5-.4-.6-.7-1.3-1-2.1l3-1.2c.2.9.6,1.6,1.2,2.1s1.3.9,2.2.9.7,0,1-.1c.3,0,.6-.2.8-.4.2-.2.4-.4.6-.6.1-.3.2-.6.2-.9s0-.6-.2-.9c-.1-.3-.3-.5-.6-.7-.3-.2-.6-.4-1-.6-.4-.2-.9-.4-1.6-.6l-1.1-.4c-.5-.2-.9-.4-1.4-.6-.5-.3-.9-.6-1.3-1-.4-.4-.7-.8-.9-1.4-.2-.5-.4-1.1-.4-1.8s.1-1.3.4-1.9.6-1.1,1.1-1.5c.5-.4,1.1-.8,1.8-1s1.4-.4,2.3-.4,1.6.1,2.2.3,1.2.5,1.6.9c.4.4.8.8,1.1,1.2.3.4.5.8.6,1.2l-2.9,1.2c-.2-.5-.5-.9-.9-1.3-.4-.4-1-.6-1.7-.6s-1.3.2-1.8.5c-.5.3-.7.8-.7,1.3s.2.9.7,1.3c.4.4,1.2.7,2.1,1l1.1.4c.7.2,1.3.5,1.9.8.6.3,1.1.7,1.5,1.1.4.4.7.9.9,1.5.2.6.3,1.2.3,1.9s-.2,1.7-.5,2.3c-.4.6-.8,1.2-1.4,1.6-.6.4-1.2.7-1.9.9-.7.2-1.4.3-2.1.3Z"/>
              <path class="cls-1" d="M477.2,862.7h3.5l3.6,10.3.6,2.2h.2l.7-2.2,3.7-10.3h3.5l-6.3,17.2h-3.4l-6.1-17.2Z"/>
              <path class="cls-1" d="M502.4,870.5h8.4c0,.2,0,.4.1.7,0,.3,0,.5,0,.8,0,1.1-.2,2.1-.5,3.1-.3,1-.9,1.8-1.6,2.6-.8.8-1.7,1.4-2.8,1.9s-2.3.7-3.7.7-2.4-.2-3.5-.7c-1.1-.4-2.1-1.1-2.9-1.9-.8-.8-1.5-1.7-1.9-2.8-.5-1.1-.7-2.3-.7-3.6s.2-2.5.7-3.6c.5-1.1,1.1-2,1.9-2.8s1.8-1.4,2.9-1.9c1.1-.4,2.3-.7,3.5-.7s2.6.2,3.7.7c1.1.5,2,1.1,2.8,2l-2.2,2.2c-.6-.6-1.2-1-1.9-1.4-.7-.3-1.5-.5-2.5-.5s-1.5.1-2.2.4c-.7.3-1.3.7-1.8,1.2-.5.5-.9,1.1-1.3,1.9-.3.7-.5,1.5-.5,2.4s.2,1.7.5,2.4c.3.7.7,1.3,1.3,1.9s1.2.9,1.9,1.2c.7.3,1.5.4,2.3.4s1.7-.1,2.3-.4,1.2-.6,1.6-1c.3-.3.6-.7.8-1.1.2-.4.4-.9.5-1.5h-5.4v-2.8Z"/>
            </g>
            <path class="cls-1" d="M603,859.5c0-2.7-2.1-4.6-4.8-4.7-2,0-1.8.3-1.8-1.9,0-2.4,0-4.8,0-7.2,0-.8-.2-1.5-.8-2.1-5.1-5.8-10.2-11.6-15.3-17.4-.3-.3-.6-.5-.9-.8h-40.6c-1.7.6-2.5,1.9-2.5,3.7,0,8.2,0,16.3,0,24.5,0,1.2,0,1.3-1.2,1.2-3.3-.2-5.5,2.1-5.4,5.4,0,7.6,0,15.1,0,22.7,0,3.4,1.9,5.3,5.3,5.3q1.3,0,1.3,1.3c0,4.8,0,9.7,0,14.5,0,2.6,1.3,3.9,3.8,3.9,17.4,0,34.9,0,52.3,0,2.5,0,3.8-1.3,3.8-3.8,0-4.9,0-9.8,0-14.7,0-1.1,0-1.1,1.1-1.1.6,0,1.2,0,1.8-.1,2.2-.5,3.7-2.3,3.7-4.5,0-8.1,0-16.1,0-24.2ZM541,828.7c11.6,0,23.2,0,34.9,0,1.2,0,1.2,0,1.2,1.2,0,4.9,0,9.8,0,14.7,0,1.8.5,2.3,2.3,2.3,4.2,0,8.3,0,12.5,0,1,0,1,0,1,1.1,0,1.9,0,3.9,0,5.8,0,1,0,1.1-1.1,1.1-8.5,0-17,0-25.4,0h-25.4c-1.2,0-1.2,0-1.2-1.2,0-7.9,0-15.8,0-23.7,0-1.2,0-1.2,1.2-1.2ZM591.7,903.6c-8.5,0-16.9,0-25.4,0s-16.9,0-25.3,0c-1.2,0-1.2,0-1.2-1.3,0-4.3,0-8.7,0-13,0-1,0-1.1,1-1.1,17,0,34,0,51,0,1,0,1.1,0,1.1,1.1,0,4.3,0,8.7,0,13,0,1.2,0,1.2-1.2,1.2Z"/>
            <g>
              <path class="cls-1" d="M550,865.8v4h6.9v3.1h-6.9v4h7.7v3.1h-10.9v-17.2h10.9v3.1h-7.7Z"/>
              <path class="cls-1" d="M560.6,879.9v-17.2h6.1c.8,0,1.6.1,2.3.4.7.3,1.3.6,1.9,1.1.5.5.9,1.1,1.2,1.7.3.7.5,1.4.5,2.2s-.2,1.6-.5,2.2c-.3.7-.7,1.2-1.2,1.7-.5.5-1.1.9-1.9,1.1-.7.3-1.5.4-2.3.4h-2.8v6.3h-3.2ZM566.7,870.5c.8,0,1.5-.2,1.9-.7s.6-1,.6-1.7,0-.6-.2-.9c-.1-.3-.3-.5-.5-.8-.2-.2-.5-.4-.8-.5-.3-.1-.7-.2-1.1-.2h-2.9v4.7h2.9Z"/>
              <path class="cls-1" d="M580.1,880.3c-.7,0-1.4-.1-2.1-.3s-1.3-.5-1.8-.9c-.6-.4-1-.9-1.5-1.5-.4-.6-.7-1.3-1-2.1l3-1.2c.2.9.6,1.6,1.2,2.1.6.6,1.3.9,2.2.9s.7,0,1-.1c.3,0,.6-.2.8-.4.2-.2.4-.4.6-.6.1-.3.2-.6.2-.9s0-.6-.2-.9c-.1-.3-.3-.5-.6-.7-.3-.2-.6-.4-1-.6s-.9-.4-1.6-.6l-1.1-.4c-.5-.2-.9-.4-1.4-.6-.5-.3-.9-.6-1.3-1-.4-.4-.7-.8-.9-1.4-.2-.5-.4-1.1-.4-1.8s.1-1.3.4-1.9.6-1.1,1.1-1.5c.5-.4,1.1-.8,1.8-1s1.4-.4,2.3-.4,1.6.1,2.2.3c.6.2,1.2.5,1.6.9.4.4.8.8,1.1,1.2.3.4.5.8.6,1.2l-2.9,1.2c-.2-.5-.5-.9-.9-1.3s-1-.6-1.7-.6-1.3.2-1.8.5c-.5.3-.7.8-.7,1.3s.2.9.7,1.3c.4.4,1.2.7,2.1,1l1.1.4c.7.2,1.3.5,1.9.8.6.3,1.1.7,1.5,1.1.4.4.7.9.9,1.5s.3,1.2.3,1.9-.2,1.7-.5,2.3-.8,1.2-1.4,1.6c-.6.4-1.2.7-1.9.9-.7.2-1.4.3-2.1.3Z"/>
            </g>
            <g>
              <path class="cls-1" d="M655.4,876.6l8.7-10.9h-8.3v-3.1h12.1v3.3l-8.6,10.9h8.7v3.1h-12.6v-3.3h0Z"/>
              <path class="cls-1" d="M670.7,862.7h3.2v17.2h-3.2v-17.2Z"/>
              <path class="cls-1" d="M677.4,879.9v-17.2h6.1c.8,0,1.6.1,2.3.4.7.3,1.3.6,1.9,1.1s.9,1.1,1.2,1.7c.3.7.5,1.4.5,2.2s-.2,1.6-.5,2.2c-.3.7-.7,1.2-1.2,1.7s-1.1.9-1.9,1.1c-.7.3-1.5.4-2.3.4h-2.8v6.3h-3.2ZM683.5,870.5c.8,0,1.5-.2,1.9-.7.4-.5.6-1,.6-1.7s0-.6-.2-.9c-.1-.3-.3-.5-.5-.8-.2-.2-.5-.4-.8-.5-.3-.1-.7-.2-1.1-.2h-2.9v4.7h2.9Z"/>
            </g>
          </g>
          <g class="cls-2">
            <path class="cls-1" d="M609.1,863.8h19.7v4.9h-19.7v-4.9ZM609.1,872.2h19.7v4.9h-19.7v-4.9Z"/>
          </g>
        </g>
        <g class="cls-2">
          <path class="cls-1" d="M297,963.1h3.5c2.8,0,4.6,1.8,4.6,4.3s-1.9,4.3-4.6,4.3h-3.5v-8.6ZM300.4,970.9c2.3,0,3.8-1.4,3.8-3.5s-1.5-3.5-3.8-3.5h-2.5v7h2.5Z"/>
          <path class="cls-1" d="M315.3,967.4c0-2.5,1.9-4.4,4.5-4.4s4.5,1.9,4.5,4.4-1.9,4.4-4.5,4.4-4.5-1.9-4.5-4.4ZM323.4,967.4c0-2-1.5-3.6-3.6-3.6s-3.6,1.5-3.6,3.6,1.5,3.6,3.6,3.6,3.6-1.5,3.6-3.6Z"/>
          <path class="cls-1" d="M346.7,963.1l-2.9,8.6h-1l-2.5-7.3-2.5,7.3h-.9l-2.9-8.6h.9l2.5,7.4,2.6-7.4h.8l2.5,7.4,2.5-7.4h.9Z"/>
          <path class="cls-1" d="M364.4,963.1v8.6h-.7l-5.5-7v7h-.9v-8.6h.7l5.5,7v-7h.9Z"/>
          <path class="cls-1" d="M376.1,963.1h.9v7.8h4.8v.8h-5.7v-8.6Z"/>
          <path class="cls-1" d="M391.3,967.4c0-2.5,1.9-4.4,4.5-4.4s4.5,1.9,4.5,4.4-1.9,4.4-4.5,4.4-4.5-1.9-4.5-4.4ZM399.4,967.4c0-2-1.5-3.6-3.6-3.6s-3.6,1.5-3.6,3.6,1.5,3.6,3.6,3.6,3.6-1.5,3.6-3.6Z"/>
          <path class="cls-1" d="M416.5,969.4h-4.8l-1,2.3h-.9l3.9-8.6h.9l3.9,8.6h-1l-1-2.3ZM416.1,968.6l-2.1-4.6-2.1,4.6h4.1Z"/>
          <path class="cls-1" d="M428.8,963.1h3.5c2.8,0,4.6,1.8,4.6,4.3s-1.9,4.3-4.6,4.3h-3.5v-8.6ZM432.2,970.9c2.3,0,3.8-1.4,3.8-3.5s-1.5-3.5-3.8-3.5h-2.5v7h2.5Z"/>
          <path class="cls-1" d="M465.3,969.4h-4.8l-1,2.3h-.9l3.9-8.6h.9l3.9,8.6h-1l-1-2.3ZM464.9,968.6l-2.1-4.6-2.1,4.6h4.1Z"/>
          <path class="cls-1" d="M477.5,963.1h.9v7.8h4.8v.8h-5.7v-8.6Z"/>
          <path class="cls-1" d="M493.6,963.1h.9v7.8h4.8v.8h-5.7v-8.6Z"/>
          <path class="cls-1" d="M522.7,963.9v3.4h4.4v.8h-4.4v3.6h-.9v-8.6h5.9v.8h-5Z"/>
          <path class="cls-1" d="M538.5,963.1h.9v8.6h-.9v-8.6Z"/>
          <path class="cls-1" d="M551.1,963.1h.9v7.8h4.8v.8h-5.7v-8.6Z"/>
          <path class="cls-1" d="M573.2,970.9v.8h-6.1v-8.6h5.9v.8h-5v3.1h4.4v.8h-4.4v3.2h5.2Z"/>
          <path class="cls-1" d="M597.3,963.9v3.4h4.4v.8h-4.4v3.6h-.9v-8.6h5.9v.8h-5Z"/>
          <path class="cls-1" d="M612.1,967.4c0-2.5,1.9-4.4,4.5-4.4s4.5,1.9,4.5,4.4-1.9,4.4-4.5,4.4-4.5-1.9-4.5-4.4ZM620.2,967.4c0-2-1.5-3.6-3.6-3.6s-3.6,1.5-3.6,3.6,1.5,3.6,3.6,3.6,3.6-1.5,3.6-3.6Z"/>
          <path class="cls-1" d="M637.9,971.7l-2-2.8c-.2,0-.4,0-.7,0h-2.3v2.7h-.9v-8.6h3.2c2.2,0,3.5,1.1,3.5,2.9s-.7,2.3-2,2.7l2.1,2.9h-1ZM637.9,966c0-1.4-.9-2.2-2.6-2.2h-2.3v4.3h2.3c1.7,0,2.6-.8,2.6-2.1Z"/>
          <path class="cls-1" d="M658.7,963.1v8.6h-.9v-6.9l-3.4,5.8h-.4l-3.4-5.7v6.8h-.9v-8.6h.7l3.7,6.4,3.7-6.4h.7Z"/>
          <path class="cls-1" d="M675.8,969.4h-4.8l-1,2.3h-.9l3.9-8.6h.9l3.9,8.6h-1l-1-2.3ZM675.5,968.6l-2.1-4.6-2.1,4.6h4.1Z"/>
          <path class="cls-1" d="M689.3,963.9h-3v-.8h6.9v.8h-3v7.8h-.9v-7.8h0Z"/>
          <path class="cls-1" d="M702.6,970.6l.4-.7c.6.6,1.7,1,2.8,1,1.6,0,2.3-.7,2.3-1.5,0-2.4-5.3-.9-5.3-4.1s1-2.4,3.2-2.4,2,.3,2.7.8l-.3.7c-.7-.5-1.6-.7-2.4-.7-1.6,0-2.3.7-2.3,1.6,0,2.4,5.3.9,5.3,4.1s-1,2.3-3.2,2.3c-1.3,0-2.6-.5-3.2-1.1Z"/>
        </g>
      </g>
      <path class="cls-1" d="M500,9.8C229.3,9.8,9.8,229.2,9.8,500.1s219.5,490.1,490.2,490.1,490.2-219.4,490.2-490.1S770.8,9.8,500,9.8h0ZM111.6,616.3c-4.2,0-7.7-3.3-7.7-7.5s3.5-7.7,7.7-7.7,7.6,3.5,7.6,7.7-3.4,7.5-7.6,7.5ZM111.6,513.5c-4.2,0-7.7-3.5-7.7-7.7s3.5-7.7,7.7-7.7,7.6,3.5,7.6,7.7-3.4,7.7-7.6,7.7ZM111.6,410.5c-4.2,0-7.7-3.5-7.7-7.7s3.5-7.7,7.7-7.7,7.6,3.5,7.6,7.7-3.4,7.7-7.6,7.7ZM164.4,620.3c-6.4,0-11.5-5.1-11.5-11.5s5.1-11.5,11.5-11.5,11.5,5.1,11.5,11.5-5.1,11.5-11.5,11.5ZM164.4,517.3c-6.4,0-11.5-5.1-11.5-11.5s5.1-11.5,11.5-11.5,11.5,5.1,11.5,11.5-5.1,11.5-11.5,11.5ZM164.4,414.3c-6.4,0-11.5-5.1-11.5-11.5s5.1-11.5,11.5-11.5,11.5,5.1,11.5,11.5-5.1,11.5-11.5,11.5ZM226.3,624.2c-8.5,0-15.4-6.9-15.4-15.4s6.9-15.4,15.4-15.4,15.3,6.9,15.3,15.4c0,8.4-6.9,15.4-15.3,15.4ZM226.3,521c-8.5,0-15.4-6.8-15.4-15.2s6.9-15.4,15.4-15.4,15.3,6.9,15.3,15.4c0,8.4-6.9,15.2-15.3,15.2ZM226.3,418.2c-8.5,0-15.4-6.9-15.4-15.4s6.9-15.4,15.4-15.4,15.3,6.9,15.3,15.4c0,8.5-6.9,15.4-15.3,15.4ZM291.4,628c-10.6,0-19.2-8.6-19.2-19.2s8.6-19.2,19.2-19.2,19.2,8.4,19.2,19.2-8.5,19.2-19.2,19.2ZM291.4,525c-10.6,0-19.2-8.6-19.2-19.2s8.6-19.2,19.2-19.2,19.2,8.6,19.2,19.2-8.5,19.2-19.2,19.2ZM291.4,422c-10.6,0-19.2-8.6-19.2-19.2s8.6-19.2,19.2-19.2,19.2,8.6,19.2,19.2-8.5,19.2-19.2,19.2ZM367.6,631.7c-12.7,0-23-10.2-23-22.9s10.3-22.9,23-22.9,23,10.3,23,22.9-10.3,22.9-23,22.9ZM367.6,528.7c-12.7,0-23-10.2-23-22.9s10.3-22.9,23-22.9,23,10.3,23,22.9-10.3,22.9-23,22.9ZM367.6,425.9c-12.7,0-23-10.4-23-23.1s10.3-22.9,23-22.9,23,10.2,23,22.9-10.3,23.1-23,23.1ZM447.3,635.7c-14.8,0-26.8-12.1-26.8-26.8s12-26.8,26.8-26.8,26.8,12.1,26.8,26.8-12,26.8-26.8,26.8ZM447.3,532.6c-14.8,0-26.8-12.1-26.8-26.8s12-26.8,26.8-26.8,26.8,12.1,26.8,26.8-12,26.8-26.8,26.8ZM447.3,429.7c-14.8,0-26.8-12.1-26.8-26.8s12-26.8,26.8-26.8,26.8,12.1,26.8,26.8-12,26.8-26.8,26.8ZM542.2,845.4c-16.9,0-30.6-13.7-30.6-30.6s13.7-30.6,30.6-30.6,30.7,13.7,30.7,30.6c0,16.9-13.7,30.6-30.7,30.6ZM542.2,742.4c-16.9,0-30.6-13.7-30.6-30.6s13.7-30.6,30.6-30.6,30.7,13.7,30.7,30.6c0,16.9-13.7,30.6-30.7,30.6ZM542.2,639.4c-16.9,0-30.6-13.7-30.6-30.6s13.7-30.6,30.6-30.6,30.7,13.7,30.7,30.6-13.7,30.6-30.7,30.6ZM542.2,536.4c-16.9,0-30.6-13.7-30.6-30.6s13.7-30.6,30.6-30.6,30.7,13.7,30.7,30.6-13.7,30.6-30.7,30.6ZM542.2,433.4c-16.9,0-30.6-13.7-30.6-30.6s13.7-30.6,30.6-30.6,30.7,13.7,30.7,30.6-13.7,30.6-30.7,30.6ZM542.2,330.4c-16.9,0-30.6-13.7-30.6-30.6s13.7-30.6,30.6-30.6,30.7,13.7,30.7,30.6-13.7,30.6-30.7,30.6ZM542.2,227.4c-16.9,0-30.6-13.7-30.6-30.6s13.7-30.6,30.6-30.6,30.7,13.7,30.7,30.6-13.7,30.6-30.7,30.6ZM640.6,745.6c-18.6,0-33.7-15.1-33.7-33.8s15.1-33.8,33.7-33.8,33.8,15.1,33.8,33.8-15.1,33.8-33.8,33.8ZM640.6,642.6c-18.6,0-33.7-15.1-33.7-33.8s15.1-33.8,33.7-33.8,33.8,15.1,33.8,33.8-15.1,33.8-33.8,33.8ZM640.6,539.6c-18.6,0-33.7-15.1-33.7-33.8s15.1-33.8,33.7-33.8,33.8,15.1,33.8,33.8-15.1,33.8-33.8,33.8ZM640.6,436.6c-18.6,0-33.7-15.1-33.7-33.8s15.1-33.8,33.7-33.8,33.8,15.1,33.8,33.8-15.1,33.8-33.8,33.8ZM640.6,333.6c-18.6,0-33.7-15.1-33.7-33.8s15.1-33.8,33.7-33.8,33.8,15.1,33.8,33.8-15.1,33.8-33.8,33.8ZM746.3,647.1c-21,0-38-17-38-38s16.9-38,38-38,37.9,17,37.9,38c0,21-16.9,38-37.9,38ZM746.3,544.1c-21,0-38-17-38-38s16.9-38,38-38,37.9,17,37.9,38c0,21-16.9,38-37.9,38ZM746.3,441.1c-21,0-38-17-38-38s16.9-38,38-38,37.9,17,37.9,38c0,21-16.9,38-37.9,38ZM854,548.3c-22.9,0-41.6-18.5-41.6-41.5s18.7-41.6,41.6-41.6,41.5,18.5,41.5,41.6-18.6,41.5-41.5,41.5Z"/>
    </g>
  </g>
</svg>